<svg xmlns="http://www.w3.org/2000/svg" width="27" height="27" viewBox="0 0 27 27" fill="none">
  <mask id="mask0_3183_226" style="mask-type:alpha" maskUnits="userSpaceOnUse" x="0" y="0" width="27" height="27">
    <rect width="27" height="27" fill="#D9D9D9"/>
  </mask>
  <g mask="url(#mask0_3183_226)">
    <path d="M11.9033 18.2855L19.4667 10.7221L18.2812 9.53663L11.9033 15.9145L8.69709 12.7083L7.51162 13.8938L11.9033 18.2855ZM13.502 24.1875C12.0237 24.1875 10.6342 23.907 9.33356 23.346C8.03287 22.785 6.9015 22.0237 5.93944 21.062C4.97737 20.1003 4.21566 18.9694 3.65428 17.6693C3.09309 16.3691 2.8125 14.98 2.8125 13.502C2.8125 12.0237 3.093 10.6342 3.654 9.33356C4.215 8.03287 4.97634 6.9015 5.93803 5.93944C6.89972 4.97737 8.03063 4.21566 9.33075 3.65428C10.6309 3.09309 12.02 2.8125 13.498 2.8125C14.9763 2.8125 16.3658 3.093 17.6664 3.654C18.9671 4.215 20.0985 4.97634 21.0606 5.93803C22.0226 6.89972 22.7843 8.03063 23.3457 9.33075C23.9069 10.6309 24.1875 12.02 24.1875 13.498C24.1875 14.9763 23.907 16.3658 23.346 17.6664C22.785 18.9671 22.0237 20.0985 21.062 21.0606C20.1003 22.0226 18.9694 22.7843 17.6693 23.3457C16.3691 23.9069 14.98 24.1875 13.502 24.1875Z" fill="#26BC30"/>
  </g>
</svg>