<svg xmlns="http://www.w3.org/2000/svg" width="29" height="29" viewBox="0 0 29 29" fill="none">
  <g clip-path="url(#clip0_3188_422)">
    <path d="M29 14.5C29 22.508 22.508 29 14.5 29C6.49278 29 0 22.508 0 14.5C0 6.49278 6.49278 0 14.5 0C22.508 0 29 6.49278 29 14.5Z" fill="#FFCC4D"/>
    <path d="M9.26389 16.5139C10.3761 16.5139 11.2778 15.2516 11.2778 13.6944C11.2778 12.1373 10.3761 10.875 9.26389 10.875C8.15165 10.875 7.25 12.1373 7.25 13.6944C7.25 15.2516 8.15165 16.5139 9.26389 16.5139Z" fill="#664500"/>
    <path d="M19.7365 16.5139C20.8488 16.5139 21.7504 15.2516 21.7504 13.6944C21.7504 12.1373 20.8488 10.875 19.7365 10.875C18.6243 10.875 17.7227 12.1373 17.7227 13.6944C17.7227 15.2516 18.6243 16.5139 19.7365 16.5139Z" fill="#664500"/>
    <path d="M4.83209 10.8744C4.68256 10.8742 4.53602 10.8324 4.40888 10.7537C4.28174 10.675 4.17902 10.5625 4.11221 10.4287C4.0454 10.2949 4.01715 10.1452 4.03062 9.99625C4.04408 9.84733 4.09874 9.70509 4.18846 9.58546C6.81618 6.08129 10.3236 6.04102 10.4718 6.04102C10.5776 6.04081 10.6824 6.06143 10.7802 6.10172C10.878 6.14201 10.9669 6.20117 11.0419 6.27582C11.1168 6.35047 11.1763 6.43916 11.217 6.53681C11.2577 6.63447 11.2787 6.73917 11.279 6.84496C11.2792 6.95075 11.2585 7.05554 11.2183 7.15336C11.178 7.25117 11.1188 7.34009 11.0442 7.41505C10.9695 7.49 10.8808 7.54951 10.7832 7.59019C10.6855 7.63087 10.5808 7.65192 10.475 7.65213C10.3502 7.65374 7.60079 7.72141 5.47734 10.5521C5.40223 10.6523 5.3048 10.7336 5.1928 10.7895C5.08079 10.8454 4.95729 10.8745 4.83209 10.8744ZM24.167 10.8744C24.0418 10.8745 23.9183 10.8454 23.8063 10.7895C23.6943 10.7336 23.5969 10.6523 23.5218 10.5521C21.3943 7.71577 18.6393 7.65293 18.5225 7.65213C18.3094 7.65021 18.1058 7.56394 17.9562 7.41221C17.8065 7.26048 17.7231 7.05564 17.7242 6.84254C17.7246 6.62982 17.8094 6.42595 17.96 6.27568C18.1106 6.12541 18.3146 6.04102 18.5273 6.04102C18.6756 6.04102 22.1821 6.08129 24.8107 9.58546C24.9004 9.70509 24.9551 9.84733 24.9685 9.99625C24.982 10.1452 24.9537 10.2949 24.8869 10.4287C24.8201 10.5625 24.7174 10.675 24.5903 10.7537C24.4631 10.8324 24.3166 10.8742 24.167 10.8744ZM18.918 22.8602C18.9092 22.8248 17.9957 19.3327 14.4996 19.3327C11.0035 19.3327 10.09 22.8248 10.0811 22.8602C10.0616 22.9436 10.0692 23.0311 10.1028 23.1099C10.1364 23.1887 10.1943 23.2548 10.268 23.2984C10.3429 23.3421 10.4296 23.3609 10.5159 23.3522C10.6021 23.3435 10.6834 23.3078 10.7481 23.2501C10.7553 23.2437 11.5641 22.5549 14.4996 22.5549C17.3915 22.5549 18.2188 23.2235 18.2502 23.2501C18.3135 23.31 18.3945 23.3478 18.481 23.3578C18.5676 23.3678 18.6551 23.3495 18.7303 23.3055C18.8056 23.2616 18.8645 23.1944 18.8984 23.1142C18.9322 23.0339 18.9391 22.9448 18.918 22.8602Z" fill="#664500"/>
    <path d="M12.8876 24.9716C12.8876 27.1965 11.0848 28.9993 8.85981 28.9993C6.63486 28.9993 4.83203 27.1965 4.83203 24.9716C4.83203 22.7466 8.05425 16.916 8.85981 16.916C9.66536 16.916 12.8876 22.7466 12.8876 24.9716Z" fill="#5DADEC"/>
  </g>
  <defs>
    <clipPath id="clip0_3188_422">
      <rect width="29" height="29" fill="white"/>
    </clipPath>
  </defs>
</svg>