<svg xmlns="http://www.w3.org/2000/svg" width="128" height="128" viewBox="0 0 128 128" fill="none">
  <g clip-path="url(#clip0_3182_192)">
    <path d="M57.3682 9.11894C53.4644 33.8593 40.5763 57.37 19.1576 79.8074L21.504 81.9316C44.5313 57.7833 58.0449 32.1367 61.1224 4.97186L57.3682 9.11894ZM65.0391 9.92963L61.1403 26.3499L79.51 22.0386L65.0392 9.9295L65.0391 9.92963ZM59.6104 30.9834L52.3094 46.1992L71.1755 45.8925L59.6105 30.9835L59.6104 30.9834ZM49.0754 51.9178L39.703 65.9533L58.4244 68.3079L49.0754 51.9178ZM35.4763 71.2271L24.5355 84.0773L42.8558 88.5931L35.4763 71.2271ZM38.5431 97.3564L40.9753 99.5582C76.5376 76.8495 95.0941 61.0766 108.203 47.5411L105.858 45.4175C92.831 58.8648 74.3759 74.5317 38.5429 97.3563L38.5431 97.3564ZM50.3396 97.7487L66.8102 106.955L64.2932 88.255L50.3396 97.7487ZM73.047 82.4856L90.0128 90.7434L86.4394 72.2161L73.047 82.4856ZM94.2946 65.418L112.035 71.8464L106.534 53.7975L94.2946 65.418Z" fill="#FFD54A"/>
  </g>
  <defs>
    <clipPath id="clip0_3182_192">
      <rect width="90.0097" height="90.0097" fill="white" transform="translate(0 66.7305) rotate(-47.8466)"/>
    </clipPath>
  </defs>
</svg>