<svg width="36" height="36" viewBox="0 0 36 36" fill="none" xmlns="http://www.w3.org/2000/svg">
<path d="M24.8147 26.5057C23.4079 25.4266 20.875 24.7079 17.9837 24.7079C14.8739 24.7079 12.1781 25.5416 10.8537 26.7577C10.2816 27.282 9.73627 28.8718 11.8197 28.4799C17.884 27.2724 18.4734 27.3165 24.4208 28.4799C25.9407 28.8057 25.8075 27.6327 25.3906 27.0328C25.2574 26.8421 25.0696 26.6993 24.8827 26.5584L24.8147 26.5057ZM14.1676 17.9995C14.1676 20.1175 13.0943 21.8329 11.7718 21.8329C10.4493 21.8329 9.37594 20.1175 9.37594 17.9995C9.37594 16.4528 9.94902 15.1198 10.7732 14.5141L10.755 14.5083C9.3998 14.0627 8.0108 13.7275 6.60156 13.5059L6.87948 11.6094C8.39811 11.8465 9.89488 12.2071 11.3549 12.6875C13.0157 13.2357 14.7886 14.01 15.9913 15.0498L14.7388 16.4997C14.4256 16.2347 14.0888 15.9989 13.7325 15.7954C14.0066 16.4183 14.1676 17.1792 14.1676 17.9995ZM26.6259 17.9995C26.6259 20.1175 25.5526 21.8329 24.2301 21.8329C22.9076 21.8329 21.8343 20.1175 21.8343 17.9995C21.8343 17.0172 22.0643 16.1212 22.4447 15.4427C21.7931 15.7666 21.2229 16.1212 20.7839 16.4997L19.5314 15.0498C20.7341 14.01 22.507 13.2357 24.1669 12.6875C25.627 12.2075 27.1237 11.8469 28.6423 11.6094L28.9202 13.5059C27.6168 13.7104 26.3306 14.0125 25.0725 14.4096C25.98 14.9559 26.6259 16.357 26.6259 17.9995Z" fill="black"/>
<path fill-rule="evenodd" clip-rule="evenodd" d="M18 35.25C27.5268 35.25 35.25 27.5268 35.25 18C35.25 8.47321 27.5268 0.75 18 0.75C8.47321 0.75 0.75 8.47321 0.75 18C0.75 27.5268 8.47321 35.25 18 35.25ZM18 33.3333C26.4688 33.3333 33.3333 26.4688 33.3333 18C33.3333 9.53121 26.4688 2.66667 18 2.66667C9.53121 2.66667 2.66667 9.53121 2.66667 18C2.66667 26.4688 9.53121 33.3333 18 33.3333Z" fill="black"/>
</svg>
