<svg xmlns="http://www.w3.org/2000/svg" width="28" height="28" viewBox="0 0 28 28" fill="none">
  <g clip-path="url(#clip0_3172_6619)">
    <path d="M14 0.875C6.7515 0.875 0.875 6.7515 0.875 14C0.875 21.2485 6.7515 27.125 14 27.125C21.2485 27.125 27.125 21.2485 27.125 14C27.125 6.7515 21.2485 0.875 14 0.875ZM14 26.0312C7.36575 26.0312 1.96875 20.6343 1.96875 14C1.96875 7.36575 7.36575 1.96875 14 1.96875C20.6343 1.96875 26.0312 7.36575 26.0312 14C26.0312 20.6343 20.6343 26.0312 14 26.0312Z" fill="black"/>
    <path d="M22.0941 7.23115C22.4017 7.17209 22.1785 6.23803 21.9248 6.2879C20.1013 6.61515 18.2248 6.1129 16.81 4.91722C16.6153 4.7479 15.9547 5.4444 16.1913 5.64959C16.9983 6.33122 17.9457 6.82638 18.966 7.09976C19.9864 7.37314 21.0544 7.41801 22.0941 7.23115ZM5.90572 7.16465C6.94538 7.3512 8.01338 7.30619 9.03365 7.03282C10.0539 6.75945 11.0014 6.26445 11.8085 5.58309C12.0452 5.3779 11.3845 4.68053 11.1907 4.85072C10.4911 5.44098 9.66996 5.86982 8.78578 6.10673C7.90159 6.34363 6.97607 6.38279 6.07503 6.2214C5.82216 6.17153 5.59816 7.10559 5.90572 7.16465ZM13.9995 13.9997C10.1328 13.9717 7.02353 16.3784 6.99947 19.374C6.98503 21.0317 7.58134 23.5158 9.43634 23.5293C10.7821 23.5394 12.2731 21.8629 13.9995 21.8743C15.7057 21.887 17.1149 23.6164 18.4497 23.6243C20.0903 23.6361 20.9868 21.1507 20.9995 19.4759C21.0253 16.4817 17.8643 14.0286 13.9995 13.9997ZM13.9995 20.9993C12.2495 20.9993 10.4995 22.3118 10.4995 22.3118C10.4995 22.3118 11.3745 20.1243 13.9995 20.1243C16.6245 20.1243 17.4995 22.3118 17.4995 22.3118C17.4995 22.3118 15.7495 20.9993 13.9995 20.9993ZM18.1128 16.6243H9.88609C9.58028 16.6243 9.56059 16.3364 9.73384 16.2038C10.8132 15.38 12.2066 14.8743 13.9995 14.8743C15.7932 14.8743 17.1858 15.38 18.2651 16.2038C18.4383 16.3364 18.4191 16.6243 18.1128 16.6243ZM22.8588 12.853C22.0923 11.9343 20.6801 11.0322 18.9205 10.7403C20.1057 10.0841 21.3543 9.88372 22.5325 9.7074C22.5851 9.69808 22.6335 9.67249 22.6708 9.63424C22.7081 9.59598 22.7325 9.54699 22.7405 9.49415C22.7485 9.44131 22.7398 9.38729 22.7155 9.33968C22.6912 9.29208 22.6526 9.25329 22.6051 9.22878C20.1127 7.74259 16.0588 8.93172 15.3387 12.0835C15.2932 12.2786 15.476 12.402 15.6891 12.3801C18.3876 12.1027 20.534 12.5131 22.6217 13.2708C22.8151 13.3413 23.0317 13.0604 22.8588 12.853ZM12.3112 12.3801C12.5238 12.402 12.7058 12.279 12.6616 12.0835C11.9415 8.93172 7.88759 7.74215 5.39428 9.22878C5.34678 9.25335 5.30819 9.29221 5.28395 9.33988C5.25971 9.38755 5.25103 9.44163 5.25915 9.49449C5.26727 9.54735 5.29177 9.59633 5.3292 9.63452C5.36663 9.67272 5.4151 9.69821 5.46778 9.7074C6.64597 9.88372 7.89459 10.0841 9.07978 10.7403C7.32059 11.0322 5.90791 11.9343 5.14141 12.853C4.96816 13.0604 5.18516 13.3413 5.37809 13.2708C7.46584 12.5131 9.61266 12.1027 12.3112 12.3801Z" fill="black"/>
  </g>
  <defs>
    <clipPath id="clip0_3172_6619">
      <rect width="28" height="28" fill="white"/>
    </clipPath>
  </defs>
</svg>