<svg xmlns="http://www.w3.org/2000/svg" width="42" height="42" viewBox="0 0 42 42" fill="none">
  <mask id="mask0_3188_371" style="mask-type:alpha" maskUnits="userSpaceOnUse" x="0" y="0" width="42" height="42">
    <rect width="42" height="42" fill="#D9D9D9"/>
  </mask>
  <g mask="url(#mask0_3188_371)">
    <path d="M18.5163 28.4441L30.2816 16.6788L28.4375 14.8348L18.5163 24.7559L13.5288 19.7684L11.6847 21.6125L18.5163 28.4441ZM21.0031 37.625C18.7036 37.625 16.5422 37.1887 14.5189 36.316C12.4956 35.4433 10.7357 34.259 9.23912 32.7631C7.74258 31.2671 6.55769 29.5079 5.68444 27.4855C4.81148 25.4631 4.375 23.3023 4.375 21.0031C4.375 18.7036 4.81133 16.5422 5.684 14.5189C6.55667 12.4956 7.74098 10.7357 9.23694 9.23912C10.7329 7.74258 12.4921 6.55769 14.5145 5.68444C16.5369 4.81148 18.6977 4.375 20.9969 4.375C23.2964 4.375 25.4578 4.81133 27.4811 5.684C29.5044 6.55667 31.2643 7.74098 32.7609 9.23694C34.2574 10.7329 35.4423 12.4921 36.3156 14.5145C37.1885 16.5369 37.625 18.6977 37.625 20.9969C37.625 23.2964 37.1887 25.4578 36.316 27.4811C35.4433 29.5044 34.259 31.2643 32.7631 32.7609C31.2671 34.2574 29.5079 35.4423 27.4855 36.3156C25.4631 37.1885 23.3023 37.625 21.0031 37.625Z" fill="#26BC30"/>
  </g>
</svg>