<svg xmlns="http://www.w3.org/2000/svg" width="39" height="39" viewBox="0 0 39 39" fill="none">
  <path d="M19.5 13V19.5L23.5625 23.5625" stroke="black" stroke-width="2.2" stroke-linecap="round" stroke-linejoin="round"/>
  <path d="M7.05019 11.1656L5.83144 11.1705C5.83272 11.4917 5.9608 11.7995 6.18782 12.0268C6.41484 12.2541 6.72243 12.3826 7.04369 12.3843L7.05019 11.1656ZM11.1809 12.4038C11.341 12.4046 11.4996 12.3738 11.6478 12.3132C11.7959 12.2527 11.9307 12.1635 12.0444 12.0509C12.1581 11.9383 12.2485 11.8043 12.3104 11.6567C12.3724 11.5092 12.4046 11.3508 12.4054 11.1908C12.4061 11.0307 12.3753 10.8721 12.3148 10.724C12.2542 10.5758 12.1651 10.441 12.0524 10.3273C11.9398 10.2136 11.8059 10.1232 11.6583 10.0613C11.5107 9.99935 11.3524 9.96709 11.1923 9.96634L11.1809 12.4038ZM8.24782 7.02184C8.24696 6.86179 8.21459 6.70348 8.15256 6.55594C8.09052 6.4084 8.00003 6.27453 7.88626 6.16196C7.77248 6.04939 7.63765 5.96034 7.48946 5.89988C7.34126 5.83942 7.18262 5.80874 7.02257 5.80959C6.86252 5.81045 6.70421 5.84281 6.55667 5.90485C6.40913 5.96689 6.27525 6.05738 6.16268 6.17115C6.05012 6.28493 5.96106 6.41976 5.9006 6.56795C5.84014 6.71614 5.80946 6.87479 5.81032 7.03484L8.24782 7.02184ZM6.21982 17.5258C6.24317 17.3666 6.23473 17.2042 6.195 17.0482C6.15526 16.8922 6.08501 16.7456 5.9883 16.6169C5.89159 16.4882 5.77035 16.38 5.63156 16.2984C5.49278 16.2168 5.3392 16.1635 5.17971 16.1416C5.02022 16.1197 4.85798 16.1297 4.70234 16.1708C4.54671 16.212 4.40077 16.2836 4.27296 16.3814C4.14514 16.4793 4.03799 16.6016 3.95768 16.7411C3.87737 16.8806 3.8255 17.0347 3.80507 17.1943L6.21982 17.5258ZM30.6517 8.34947C24.4442 2.14197 14.4131 2.07697 8.24619 8.24547L9.96869 9.96797C15.1687 4.76959 23.6561 4.80047 28.9292 10.072L30.6517 8.34947ZM8.35019 30.651C14.5577 36.8585 24.5888 36.9235 30.7557 30.755L29.0332 29.0325C23.8332 34.2308 15.3458 34.2 10.0727 28.9285L8.35019 30.651ZM30.7557 30.755C36.9226 24.5881 36.8592 14.557 30.6517 8.34947L28.9292 10.072C34.2007 15.3451 34.2316 23.8325 29.0332 29.0325L30.7557 30.755ZM8.24619 8.24547L6.18732 10.3027L7.91144 12.0252L9.96869 9.96797L8.24619 8.24547ZM7.04369 12.3843L11.1809 12.4038L11.1923 9.96634L7.05669 9.94684L7.04369 12.3843ZM8.26894 11.1591L8.24782 7.02184L5.81032 7.03484L5.83144 11.1705L8.26894 11.1591ZM3.80344 17.1927C3.46932 19.6344 3.70586 22.1203 4.49449 24.4552C5.28311 26.7901 6.60235 28.9103 8.34857 30.6493L10.0711 28.9268C8.59085 27.4536 7.47252 25.6571 6.80398 23.6785C6.13544 21.7 5.93493 19.5934 6.21819 17.5242L3.80344 17.1927Z" fill="black"/>
</svg>