<svg xmlns="http://www.w3.org/2000/svg" width="22" height="22" viewBox="0 0 22 22" fill="none">
  <g clip-path="url(#clip0_3172_6825)">
    <path d="M0.648438 12.3294L3.45688 9.56219L8.23844 8.71484L7.76578 11.2173L1.30156 13.2042L0.883906 13.0237L0.648438 12.3294Z" fill="#CA2C31"/>
    <path d="M3.94359 10.2718L0.894531 13.0424L3.1375 14.1355L6.54234 12.3979V11.578L7.23844 9.70117L3.94359 10.2718ZM11.1589 15.1513L9.68594 15.7907L8.29547 18.7384C8.29547 18.7384 9.51922 21.4488 9.57422 21.4488C9.62922 21.4488 10.3253 21.5038 10.3253 21.5038L12.8003 18.7366L13.4259 14.0101L11.1589 15.1513Z" fill="#A02422"/>
    <path d="M9.71078 17.3309C9.71078 17.3309 10.5306 17.1642 11.115 16.8858C11.6994 16.6073 12.4212 16.1914 12.4212 16.1914L12.1566 18.4997L9.56984 21.4439C9.56984 21.4439 9.46844 21.3184 9.03875 20.3834C8.69672 19.6375 8.57812 19.3711 8.57812 19.3711L9.71078 17.3309Z" fill="#CA2C31"/>
    <path d="M5.43018 13.8642C5.43018 13.8642 4.44361 13.7817 3.36252 15.1481C2.37596 16.396 1.91361 18.4275 1.73486 18.95C1.55611 19.4725 1.12815 19.5791 1.2708 19.818C1.41346 20.0569 2.03049 20.0431 2.7919 19.9486C3.5533 19.8541 4.20643 19.6152 4.20643 19.6152C4.20643 19.6152 4.17377 19.6977 4.06377 19.8764C4.02424 19.94 3.88674 20.0311 3.89705 20.1256C3.92111 20.3508 5.84955 20.356 7.38955 18.7713C9.0533 17.0611 8.24549 15.6586 8.24549 15.6586L5.43018 13.8642Z" fill="#F7D74D"/>
    <path d="M5.72595 14.6602C5.72595 14.6602 4.66205 14.7169 3.78205 16.0833C2.90205 17.4497 2.49299 19.0327 2.5772 19.1392C2.6597 19.2458 4.29939 18.6528 4.69299 18.7714C4.96283 18.8539 4.82361 19.1272 4.8958 19.1994C4.95595 19.2595 5.66752 19.3609 6.81908 18.1131C7.97236 16.8653 7.69908 15.1122 7.69908 15.1122L5.72595 14.6602Z" fill="#FBF0B4"/>
    <path d="M6.24825 12.7949C6.24825 12.7949 5.71372 13.271 5.52294 13.5443C5.33216 13.8176 5.33216 13.8416 5.34419 13.9241C5.35622 14.0066 5.55388 14.9124 6.37716 15.7065C7.38778 16.681 8.29013 16.8116 8.42075 16.8116C8.55138 16.8116 9.41934 15.8371 9.41934 15.8371L6.24825 12.7949Z" fill="#858585"/>
    <path d="M8.60938 15.6811C8.60938 15.6811 9.47563 16.25 10.928 15.7619C12.9131 15.095 14.3689 13.6031 16.1719 11.7194C17.9113 9.90094 19.3705 7.64422 19.3705 7.64422L18.3478 4.21875L8.60938 15.6811Z" fill="#437687"/>
    <path d="M11.6875 13.807L11.9264 13.0645L12.5245 13.1487C12.5245 13.1487 12.98 13.3635 13.3152 13.5199C13.6503 13.6763 14.0817 13.7949 14.0817 13.7949L13.2309 14.5134C13.2309 14.5134 12.7669 14.338 12.4283 14.1902C12.0467 14.0235 11.6875 13.807 11.6875 13.807Z" fill="#3F545F"/>
    <path d="M14.4914 2.77344C14.4914 2.77344 12.838 3.7325 10.4678 5.97547C8.33141 7.99672 6.74844 9.82547 6.36516 11.3809C6.04547 12.6838 6.21563 13.4744 6.94266 14.3286C7.71094 15.2327 8.61157 15.6812 8.61157 15.6812C8.61157 15.6812 9.28875 15.6916 12.1144 13.5173C15.6395 10.8034 18.4634 6.25906 18.4634 6.25906L14.4914 2.77344Z" fill="#8DAFBF"/>
    <path d="M17.9046 7.19174C17.9046 7.19174 16.466 6.57815 15.4399 5.14643C14.4207 3.72502 14.5015 2.76424 14.5015 2.76424C14.5015 2.76424 15.354 2.09565 17.2704 1.3308C18.5595 0.816895 20.3143 0.553927 20.8918 0.981895C21.4693 1.40986 20.4965 3.55658 20.4965 3.55658L18.7245 6.98721L17.9046 7.19174Z" fill="#D83F22"/>
    <path d="M11.7169 13.8197C11.7169 13.8197 10.4742 13.1855 9.68359 12.2831C8.18828 10.5798 7.87891 8.70984 7.87891 8.70984L8.63 7.82812C8.63 7.82812 8.81734 9.815 10.4209 11.532C11.4659 12.6509 12.5573 13.1631 12.5573 13.1631C12.5573 13.1631 12.3391 13.347 12.1053 13.5258C11.9558 13.6409 11.7169 13.8197 11.7169 13.8197Z" fill="#6896A5"/>
    <path d="M19.3723 7.64594C19.3723 7.64594 20.1183 6.74703 20.8247 4.72062C21.8113 1.895 20.9519 1.03906 20.9519 1.03906C20.9519 1.03906 20.6614 2.38312 19.6525 4.25141C18.843 5.74844 17.8633 7.17328 17.8633 7.17328C17.8633 7.17328 18.403 7.41563 18.6952 7.49984C19.063 7.60641 19.3723 7.64594 19.3723 7.64594Z" fill="#A02422"/>
    <path d="M6.84411 11.972C7.06755 12.1851 7.40614 11.9616 7.62786 11.4391C7.8513 10.9166 7.84786 10.6245 7.67599 10.5007C7.46286 10.346 7.10536 10.6846 6.94896 10.9854C6.77708 11.3188 6.67567 11.8104 6.84411 11.972ZM14.6025 3.45898C14.6025 3.45898 13.2946 4.39914 11.899 5.67789C10.6185 6.8518 9.76942 7.76961 9.65255 7.98273C9.5288 8.21133 9.52708 8.53445 9.62333 8.69945C9.71958 8.86445 9.93271 8.95039 10.1269 8.80602C10.3211 8.65992 11.7047 7.13023 12.9543 6.03711C14.0972 5.0368 14.979 4.40258 14.979 4.40258C14.979 4.40258 15.3365 3.77008 15.278 3.6257C15.2196 3.47961 14.6025 3.45898 14.6025 3.45898Z" fill="#B3E1EE"/>
    <path d="M14.6016 3.4592C14.6016 3.4592 15.5675 2.71842 16.6194 2.19764C17.5973 1.71295 18.5702 1.30905 18.7455 1.65967C18.9122 1.99311 17.8225 2.44686 16.8634 3.05874C15.9044 3.67061 14.9814 4.40108 14.9814 4.40108C14.9814 4.40108 14.8405 4.14327 14.7494 3.90436C14.6917 3.7589 14.6424 3.61027 14.6016 3.4592Z" fill="#ED6A65"/>
    <path d="M15.3986 6.74641C14.4412 5.86469 13.1092 6.10188 12.4526 6.88563C11.7789 7.69344 11.8287 8.9275 12.6245 9.67C13.3481 10.3438 14.6939 10.4967 15.5051 9.55141C16.227 8.71266 16.1823 7.46657 15.3986 6.74641Z" fill="#E1E1E1"/>
    <path d="M12.9467 7.19655C12.3778 7.75515 12.4088 8.86202 13.0859 9.36733C13.6772 9.80905 14.5159 9.78671 15.0419 9.24874C15.5678 8.71077 15.5678 7.7328 15.0745 7.22749C14.5074 6.64827 13.5981 6.55718 12.9467 7.19655Z" fill="#3F545F"/>
    <path d="M8.59126 13.2155C8.59126 13.2155 9.65516 12.1361 9.77204 12.253C9.88891 12.3699 9.87344 13.0247 9.36469 13.7535C8.85423 14.4822 7.73188 15.7799 6.84329 16.6547C5.96673 17.5158 4.73094 18.5006 4.61407 18.4835C4.52298 18.4697 4.15344 18.2858 4.00563 18.1071C3.86126 17.93 4.29266 17.093 4.46626 16.8163C4.64157 16.5396 8.59126 13.2155 8.59126 13.2155Z" fill="#A02524"/>
    <path d="M3.6488 17.5057C3.63505 17.7532 4.01318 18.1141 4.01318 18.1141L9.77443 12.2549C9.77443 12.2549 9.50459 11.9507 8.71052 12.444C7.90958 12.9424 7.20833 13.5405 6.17365 14.5426C4.73162 15.9416 3.66255 17.2582 3.6488 17.5057Z" fill="#CA2C31"/>
    <path d="M3.27741 6.35006C3.08663 6.54084 3.07803 6.84678 3.29116 7.02209C3.48022 7.1785 3.78788 7.07709 3.90303 6.93616C4.01819 6.79522 4.00444 6.48928 3.85147 6.33803C3.6985 6.18506 3.39428 6.23491 3.27741 6.35006Z" fill="white"/>
    <path opacity="0.5" d="M7.04956 6.12748C6.90518 6.28733 6.95159 6.52452 7.08565 6.61217C7.21971 6.69983 7.42081 6.69123 7.51877 6.57092C7.60643 6.46264 7.61674 6.24608 7.48268 6.11202C7.36581 5.99686 7.14237 6.02436 7.04956 6.12748Z" fill="white"/>
    <path d="M9.54762 2.04451C9.54762 2.04451 9.75731 1.44639 9.88106 1.43951C10.0065 1.43264 10.187 2.03764 10.187 2.03764C10.187 2.03764 10.8075 2.04451 10.8487 2.13561C10.902 2.25248 10.4517 2.64436 10.4517 2.64436C10.4517 2.64436 10.5978 3.22873 10.529 3.2992C10.4517 3.37654 9.91716 3.06889 9.91716 3.06889C9.91716 3.06889 9.36716 3.45217 9.24856 3.34732C9.14544 3.25623 9.36028 2.63748 9.36028 2.63748C9.36028 2.63748 8.84466 2.26107 8.87216 2.15623C8.91169 2.00842 9.54762 2.04451 9.54762 2.04451ZM16.6736 16.3858C16.8815 16.5009 17.1428 16.4356 17.239 16.2139C17.3267 16.0162 17.1651 15.7808 17.019 15.7172C16.8729 15.6536 16.6168 15.7378 16.524 15.9045C16.4329 16.0695 16.5481 16.317 16.6736 16.3858ZM19.6264 11.3172C19.5078 11.1333 19.2517 11.0731 19.085 11.2209C18.9234 11.3653 18.9629 11.5922 19.054 11.7073C19.1451 11.8225 19.3892 11.8654 19.537 11.7709C19.6848 11.6764 19.6986 11.4272 19.6264 11.3172Z" fill="white"/>
  </g>
  <defs>
    <clipPath id="clip0_3172_6825">
      <rect width="22" height="22" fill="white"/>
    </clipPath>
  </defs>
</svg>