<svg width="181" height="275" viewBox="0 0 181 275" fill="none" xmlns="http://www.w3.org/2000/svg">
<g clip-path="url(#clip0_5358_922)">
<mask id="mask0_5358_922" style="mask-type:luminance" maskUnits="userSpaceOnUse" x="0" y="189" width="86" height="86">
<path d="M74.1875 274.188L-0.00149387 263.188L10.9982 188.999L85.1872 199.999L74.1875 274.188Z" fill="white"/>
</mask>
<g mask="url(#mask0_5358_922)">
<path d="M54.3702 238.749C51.4362 239.361 49.1318 236.254 50.5693 233.622L59.082 218.028C59.2704 217.683 59.5428 217.39 59.874 217.178C60.2053 216.965 60.5847 216.839 60.9773 216.812C61.3699 216.785 61.7631 216.857 62.1205 217.022C62.4779 217.186 62.7881 217.438 63.0225 217.755L73.1683 231.433C73.4024 231.749 73.5531 232.118 73.6068 232.508C73.6604 232.897 73.6152 233.294 73.4753 233.662C73.3354 234.029 73.1053 234.356 72.8062 234.611C72.507 234.866 72.1485 235.042 71.7636 235.122L54.3702 238.749Z" fill="url(#paint0_linear_5358_922)"/>
<path d="M54.3702 238.749C51.4362 239.361 49.1318 236.254 50.5693 233.622L59.082 218.028C59.2704 217.683 59.5428 217.39 59.874 217.178C60.2053 216.965 60.5847 216.839 60.9773 216.812C61.3699 216.785 61.7631 216.857 62.1205 217.022C62.4779 217.186 62.7881 217.438 63.0225 217.755L73.1683 231.433C73.4024 231.749 73.5531 232.118 73.6068 232.508C73.6604 232.897 73.6152 233.294 73.4753 233.662C73.3354 234.029 73.1053 234.356 72.8062 234.611C72.507 234.866 72.1485 235.042 71.7636 235.122L54.3702 238.749Z" fill="url(#paint1_radial_5358_922)"/>
<path d="M54.3702 238.749C51.4362 239.361 49.1318 236.254 50.5693 233.622L59.082 218.028C59.2704 217.683 59.5428 217.39 59.874 217.178C60.2053 216.965 60.5847 216.839 60.9773 216.812C61.3699 216.785 61.7631 216.857 62.1205 217.022C62.4779 217.186 62.7881 217.438 63.0225 217.755L73.1683 231.433C73.4024 231.749 73.5531 232.118 73.6068 232.508C73.6604 232.897 73.6152 233.294 73.4753 233.662C73.3354 234.029 73.1053 234.356 72.8062 234.611C72.507 234.866 72.1485 235.042 71.7636 235.122L54.3702 238.749Z" fill="url(#paint2_linear_5358_922)"/>
<path d="M42.5241 222.776C39.5901 223.388 37.2857 220.281 38.7233 217.649L47.2405 202.056C47.4291 201.711 47.7014 201.419 48.0324 201.206C48.3634 200.994 48.7425 200.869 49.1347 200.841C49.527 200.814 49.9198 200.886 50.277 201.05C50.6342 201.215 50.9443 201.466 51.1787 201.782L61.3246 215.46C61.5586 215.776 61.7094 216.146 61.763 216.535C61.8167 216.925 61.7714 217.322 61.6315 217.689C61.4916 218.057 61.2615 218.383 60.9624 218.638C60.6633 218.893 60.3048 219.069 59.9199 219.149L42.5241 222.776Z" fill="url(#paint3_linear_5358_922)"/>
<path d="M42.5241 222.776C39.5901 223.388 37.2857 220.281 38.7233 217.649L47.2405 202.056C47.4291 201.711 47.7014 201.419 48.0324 201.206C48.3634 200.994 48.7425 200.869 49.1347 200.841C49.527 200.814 49.9198 200.886 50.277 201.05C50.6342 201.215 50.9443 201.466 51.1787 201.782L61.3246 215.46C61.5586 215.776 61.7094 216.146 61.763 216.535C61.8167 216.925 61.7714 217.322 61.6315 217.689C61.4916 218.057 61.2615 218.383 60.9624 218.638C60.6633 218.893 60.3048 219.069 59.9199 219.149L42.5241 222.776Z" fill="url(#paint4_radial_5358_922)"/>
<path d="M42.5241 222.776C39.5901 223.388 37.2857 220.281 38.7233 217.649L47.2405 202.056C47.4291 201.711 47.7014 201.419 48.0324 201.206C48.3634 200.994 48.7425 200.869 49.1347 200.841C49.527 200.814 49.9198 200.886 50.277 201.05C50.6342 201.215 50.9443 201.466 51.1787 201.782L61.3246 215.46C61.5586 215.776 61.7094 216.146 61.763 216.535C61.8167 216.925 61.7714 217.322 61.6315 217.689C61.4916 218.057 61.2615 218.383 60.9624 218.638C60.6633 218.893 60.3048 219.069 59.9199 219.149L42.5241 222.776Z" fill="url(#paint5_radial_5358_922)"/>
<g filter="url(#filter0_i_5358_922)">
<path d="M23.4769 258.258C23.4098 258.273 23.3395 258.269 23.2748 258.245C23.21 258.221 23.1538 258.179 23.113 258.123L11.5076 242.352C11.4666 242.297 11.4428 242.23 11.4391 242.162C11.4354 242.093 11.452 242.024 11.4868 241.965C15.9451 234.428 21.7147 226.564 28.6393 221.426C35.3852 216.422 46.064 212.89 55.5821 210.538L66.4246 225.159C61.4127 233.585 54.9344 242.777 48.1885 247.781C41.2403 252.935 32.0068 256.179 23.4796 258.256" fill="url(#paint6_linear_5358_922)"/>
<path d="M23.4769 258.258C23.4098 258.273 23.3395 258.269 23.2748 258.245C23.21 258.221 23.1538 258.179 23.113 258.123L11.5076 242.352C11.4666 242.297 11.4428 242.23 11.4391 242.162C11.4354 242.093 11.452 242.024 11.4868 241.965C15.9451 234.428 21.7147 226.564 28.6393 221.426C35.3852 216.422 46.064 212.89 55.5821 210.538L66.4246 225.159C61.4127 233.585 54.9344 242.777 48.1885 247.781C41.2403 252.935 32.0068 256.179 23.4796 258.256" fill="url(#paint7_radial_5358_922)"/>
<path d="M23.4769 258.258C23.4098 258.273 23.3395 258.269 23.2748 258.245C23.21 258.221 23.1538 258.179 23.113 258.123L11.5076 242.352C11.4666 242.297 11.4428 242.23 11.4391 242.162C11.4354 242.093 11.452 242.024 11.4868 241.965C15.9451 234.428 21.7147 226.564 28.6393 221.426C35.3852 216.422 46.064 212.89 55.5821 210.538L66.4246 225.159C61.4127 233.585 54.9344 242.777 48.1885 247.781C41.2403 252.935 32.0068 256.179 23.4796 258.256" fill="url(#paint8_radial_5358_922)"/>
<path d="M23.4769 258.258C23.4098 258.273 23.3395 258.269 23.2748 258.245C23.21 258.221 23.1538 258.179 23.113 258.123L11.5076 242.352C11.4666 242.297 11.4428 242.23 11.4391 242.162C11.4354 242.093 11.452 242.024 11.4868 241.965C15.9451 234.428 21.7147 226.564 28.6393 221.426C35.3852 216.422 46.064 212.89 55.5821 210.538L66.4246 225.159C61.4127 233.585 54.9344 242.777 48.1885 247.781C41.2403 252.935 32.0068 256.179 23.4796 258.256" fill="url(#paint9_radial_5358_922)"/>
<path d="M23.4769 258.258C23.4098 258.273 23.3395 258.269 23.2748 258.245C23.21 258.221 23.1538 258.179 23.113 258.123L11.5076 242.352C11.4666 242.297 11.4428 242.23 11.4391 242.162C11.4354 242.093 11.452 242.024 11.4868 241.965C15.9451 234.428 21.7147 226.564 28.6393 221.426C35.3852 216.422 46.064 212.89 55.5821 210.538L66.4246 225.159C61.4127 233.585 54.9344 242.777 48.1885 247.781C41.2403 252.935 32.0068 256.179 23.4796 258.256" fill="url(#paint10_radial_5358_922)"/>
</g>
<g filter="url(#filter1_dii_5358_922)">
<path d="M21.1893 240.121C21.3248 239.084 21.6654 238.085 22.1912 237.181C22.7171 236.277 23.4176 235.487 24.252 234.857C25.0864 234.227 26.0379 233.769 27.051 233.511C28.0641 233.252 29.1186 233.198 30.1529 233.351C31.1872 233.505 32.1806 233.862 33.0751 234.404C33.9697 234.945 34.7475 235.659 35.3631 236.504C35.9788 237.349 36.4199 238.309 36.6609 239.326C36.9019 240.344 36.9379 241.399 36.7667 242.43C36.4286 244.467 35.3039 246.29 33.6348 247.506C31.9656 248.722 29.8857 249.234 27.843 248.931C25.8003 248.628 23.9582 247.535 22.7137 245.887C21.4692 244.239 20.9217 242.168 21.1893 240.121Z" fill="url(#paint11_linear_5358_922)"/>
<path d="M21.1893 240.121C21.3248 239.084 21.6654 238.085 22.1912 237.181C22.7171 236.277 23.4176 235.487 24.252 234.857C25.0864 234.227 26.0379 233.769 27.051 233.511C28.0641 233.252 29.1186 233.198 30.1529 233.351C31.1872 233.505 32.1806 233.862 33.0751 234.404C33.9697 234.945 34.7475 235.659 35.3631 236.504C35.9788 237.349 36.4199 238.309 36.6609 239.326C36.9019 240.344 36.9379 241.399 36.7667 242.43C36.4286 244.467 35.3039 246.29 33.6348 247.506C31.9656 248.722 29.8857 249.234 27.843 248.931C25.8003 248.628 23.9582 247.535 22.7137 245.887C21.4692 244.239 20.9217 242.168 21.1893 240.121Z" fill="url(#paint12_radial_5358_922)"/>
</g>
<path d="M23.5887 240.476C23.6802 239.756 23.9144 239.062 24.2776 238.434C24.6408 237.806 25.1256 237.257 25.7038 236.819C26.2819 236.381 26.9416 236.062 27.6444 235.882C28.3471 235.702 29.0787 235.664 29.7963 235.771C30.5139 235.877 31.203 236.126 31.8233 236.502C32.4436 236.878 32.9826 237.374 33.4087 237.961C33.8348 238.548 34.1395 239.214 34.3048 239.921C34.4702 240.627 34.4929 241.359 34.3716 242.074C34.1333 243.481 33.3533 244.737 32.199 245.575C31.0447 246.413 29.6081 246.765 28.1972 246.556C26.7864 246.347 25.5137 245.593 24.6522 244.456C23.7906 243.32 23.4089 241.891 23.5887 240.476Z" fill="url(#paint13_radial_5358_922)"/>
<g filter="url(#filter2_i_5358_922)">
<path d="M78.7254 204.885C80.1215 206.767 77.7773 218.039 71.6376 219.498C71.6376 219.498 65.4978 220.957 62.3128 216.694C59.1279 212.431 61.4205 208.506 61.4205 208.506C63.7887 203.831 71.0569 202.912 71.7559 203.854C72.141 204.373 71.2052 205.076 71.5132 205.491C71.8209 205.908 72.4435 205.577 74.0921 205.037C75.2675 204.652 78.1665 204.132 78.7254 204.885Z" fill="url(#paint14_radial_5358_922)"/>
<path d="M78.7254 204.885C80.1215 206.767 77.7773 218.039 71.6376 219.498C71.6376 219.498 65.4978 220.957 62.3128 216.694C59.1279 212.431 61.4205 208.506 61.4205 208.506C63.7887 203.831 71.0569 202.912 71.7559 203.854C72.141 204.373 71.2052 205.076 71.5132 205.491C71.8209 205.908 72.4435 205.577 74.0921 205.037C75.2675 204.652 78.1665 204.132 78.7254 204.885Z" fill="url(#paint15_radial_5358_922)"/>
</g>
<path d="M67.3505 223.462C66.9797 223.738 66.5582 223.937 66.1102 224.049C65.6622 224.162 65.1964 224.185 64.7396 224.117C64.2827 224.049 63.8436 223.892 63.4475 223.655C63.0514 223.417 62.7059 223.104 62.4309 222.733L55.4508 213.32C54.9259 212.57 54.7142 211.645 54.8608 210.741C55.0075 209.837 55.5008 209.027 56.236 208.481C56.9711 207.935 57.8901 207.698 58.7975 207.82C59.7048 207.941 60.5291 208.412 61.0949 209.131L68.0799 218.543C68.3552 218.914 68.5547 219.335 68.6671 219.783C68.7794 220.231 68.8023 220.697 68.7346 221.154C68.6669 221.611 68.5098 222.05 68.2723 222.446C68.0348 222.842 67.7216 223.187 67.3505 223.462Z" fill="url(#paint16_linear_5358_922)"/>
<path d="M67.3505 223.462C66.9797 223.738 66.5582 223.937 66.1102 224.049C65.6622 224.162 65.1964 224.185 64.7396 224.117C64.2827 224.049 63.8436 223.892 63.4475 223.655C63.0514 223.417 62.7059 223.104 62.4309 222.733L55.4508 213.32C54.9259 212.57 54.7142 211.645 54.8608 210.741C55.0075 209.837 55.5008 209.027 56.236 208.481C56.9711 207.935 57.8901 207.698 58.7975 207.82C59.7048 207.941 60.5291 208.412 61.0949 209.131L68.0799 218.543C68.3552 218.914 68.5547 219.335 68.6671 219.783C68.7794 220.231 68.8023 220.697 68.7346 221.154C68.6669 221.611 68.5098 222.05 68.2723 222.446C68.0348 222.842 67.7216 223.187 67.3505 223.462Z" fill="url(#paint17_radial_5358_922)"/>
<path d="M67.3505 223.462C66.9797 223.738 66.5582 223.937 66.1102 224.049C65.6622 224.162 65.1964 224.185 64.7396 224.117C64.2827 224.049 63.8436 223.892 63.4475 223.655C63.0514 223.417 62.7059 223.104 62.4309 222.733L55.4508 213.32C54.9259 212.57 54.7142 211.645 54.8608 210.741C55.0075 209.837 55.5008 209.027 56.236 208.481C56.9711 207.935 57.8901 207.698 58.7975 207.82C59.7048 207.941 60.5291 208.412 61.0949 209.131L68.0799 218.543C68.3552 218.914 68.5547 219.335 68.6671 219.783C68.7794 220.231 68.8023 220.697 68.7346 221.154C68.6669 221.611 68.5098 222.05 68.2723 222.446C68.0348 222.842 67.7216 223.187 67.3505 223.462Z" fill="url(#paint18_radial_5358_922)"/>
<path d="M7.54367 257.505C9.41368 260.026 13.3013 260.349 16.2496 259.8C18.4737 259.389 20.6871 258.921 22.8879 258.399C22.9255 258.39 22.9602 258.372 22.9891 258.346C23.018 258.32 23.0401 258.288 23.0534 258.252C23.0668 258.216 23.071 258.177 23.0656 258.138C23.0603 258.1 23.0455 258.064 23.0228 258.033L11.5633 242.475C11.5402 242.445 11.51 242.42 11.4753 242.404C11.4406 242.388 11.4025 242.381 11.3644 242.383C11.3262 242.385 11.2892 242.397 11.2564 242.416C11.2237 242.436 11.1962 242.463 11.1764 242.496C10.0243 244.471 8.92216 246.474 7.87109 248.505C6.51012 251.132 5.24318 254.404 7.54367 257.505Z" fill="url(#paint19_linear_5358_922)"/>
<path d="M7.54367 257.505C9.41368 260.026 13.3013 260.349 16.2496 259.8C18.4737 259.389 20.6871 258.921 22.8879 258.399C22.9255 258.39 22.9602 258.372 22.9891 258.346C23.018 258.32 23.0401 258.288 23.0534 258.252C23.0668 258.216 23.071 258.177 23.0656 258.138C23.0603 258.1 23.0455 258.064 23.0228 258.033L11.5633 242.475C11.5402 242.445 11.51 242.42 11.4753 242.404C11.4406 242.388 11.4025 242.381 11.3644 242.383C11.3262 242.385 11.2892 242.397 11.2564 242.416C11.2237 242.436 11.1962 242.463 11.1764 242.496C10.0243 244.471 8.92216 246.474 7.87109 248.505C6.51012 251.132 5.24318 254.404 7.54367 257.505Z" fill="url(#paint20_radial_5358_922)"/>
<path d="M7.54367 257.505C9.41368 260.026 13.3013 260.349 16.2496 259.8C18.4737 259.389 20.6871 258.921 22.8879 258.399C22.9255 258.39 22.9602 258.372 22.9891 258.346C23.018 258.32 23.0401 258.288 23.0534 258.252C23.0668 258.216 23.071 258.177 23.0656 258.138C23.0603 258.1 23.0455 258.064 23.0228 258.033L11.5633 242.475C11.5402 242.445 11.51 242.42 11.4753 242.404C11.4406 242.388 11.4025 242.381 11.3644 242.383C11.3262 242.385 11.2892 242.397 11.2564 242.416C11.2237 242.436 11.1962 242.463 11.1764 242.496C10.0243 244.471 8.92216 246.474 7.87109 248.505C6.51012 251.132 5.24318 254.404 7.54367 257.505Z" fill="url(#paint21_linear_5358_922)"/>
<path d="M48.446 230.76C45.512 231.372 43.2076 228.266 44.6451 225.633L53.1601 210.04C53.3485 209.694 53.6209 209.402 53.9522 209.189C54.2834 208.977 54.6628 208.851 55.0555 208.824C55.4481 208.797 55.8412 208.869 56.1986 209.033C56.5561 209.198 56.8663 209.45 57.1006 209.766L67.2464 223.444C67.4805 223.76 67.6313 224.13 67.6849 224.52C67.7385 224.909 67.6933 225.306 67.5534 225.673C67.4135 226.041 67.1834 226.367 66.8843 226.622C66.5852 226.878 66.2266 227.053 65.8417 227.134L48.446 230.76Z" fill="url(#paint22_linear_5358_922)"/>
<path d="M48.446 230.76C45.512 231.372 43.2076 228.266 44.6451 225.633L53.1601 210.04C53.3485 209.694 53.6209 209.402 53.9522 209.189C54.2834 208.977 54.6628 208.851 55.0555 208.824C55.4481 208.797 55.8412 208.869 56.1986 209.033C56.5561 209.198 56.8663 209.45 57.1006 209.766L67.2464 223.444C67.4805 223.76 67.6313 224.13 67.6849 224.52C67.7385 224.909 67.6933 225.306 67.5534 225.673C67.4135 226.041 67.1834 226.367 66.8843 226.622C66.5852 226.878 66.2266 227.053 65.8417 227.134L48.446 230.76Z" fill="url(#paint23_radial_5358_922)"/>
<path d="M48.446 230.76C45.512 231.372 43.2076 228.266 44.6451 225.633L53.1601 210.04C53.3485 209.694 53.6209 209.402 53.9522 209.189C54.2834 208.977 54.6628 208.851 55.0555 208.824C55.4481 208.797 55.8412 208.869 56.1986 209.033C56.5561 209.198 56.8663 209.45 57.1006 209.766L67.2464 223.444C67.4805 223.76 67.6313 224.13 67.6849 224.52C67.7385 224.909 67.6933 225.306 67.5534 225.673C67.4135 226.041 67.1834 226.367 66.8843 226.622C66.5852 226.878 66.2266 227.053 65.8417 227.134L48.446 230.76Z" fill="url(#paint24_radial_5358_922)"/>
<path d="M48.446 230.76C45.512 231.372 43.2076 228.266 44.6451 225.633L53.1601 210.04C53.3485 209.694 53.6209 209.402 53.9522 209.189C54.2834 208.977 54.6628 208.851 55.0555 208.824C55.4481 208.797 55.8412 208.869 56.1986 209.033C56.5561 209.198 56.8663 209.45 57.1006 209.766L67.2464 223.444C67.4805 223.76 67.6313 224.13 67.6849 224.52C67.7385 224.909 67.6933 225.306 67.5534 225.673C67.4135 226.041 67.1834 226.367 66.8843 226.622C66.5852 226.878 66.2266 227.053 65.8417 227.134L48.446 230.76Z" fill="url(#paint25_radial_5358_922)"/>
<g filter="url(#filter3_f_5358_922)">
<path d="M60.425 219.912L45.8691 228.195L56.4863 214.516L60.425 219.912Z" fill="url(#paint26_linear_5358_922)"/>
</g>
</g>
</g>
<path d="M119.498 1.5C119.498 1.5 175.405 20.15 179.498 50C184.479 86.3242 118.776 115.538 108.998 112C99.2204 108.462 90.1343 106.914 86.9984 97C83.8487 87.042 88.0144 78.0913 96.4984 72C107.064 64.4143 118.67 69.294 129.498 76.5C144.612 86.5578 144.142 102.349 144.498 120.5C144.876 139.763 140.485 151.673 129.498 167.5C119.861 181.384 96.4984 195.5 96.4984 195.5" stroke="black" stroke-width="2" stroke-dasharray="7 7"/>
<defs>
<filter id="filter0_i_5358_922" x="11.3125" y="210.289" width="55.1133" height="47.9766" filterUnits="userSpaceOnUse" color-interpolation-filters="sRGB">
<feFlood flood-opacity="0" result="BackgroundImageFix"/>
<feBlend mode="normal" in="SourceGraphic" in2="BackgroundImageFix" result="shape"/>
<feColorMatrix in="SourceAlpha" type="matrix" values="0 0 0 0 0 0 0 0 0 0 0 0 0 0 0 0 0 0 127 0" result="hardAlpha"/>
<feOffset dx="-0.125" dy="-0.25"/>
<feGaussianBlur stdDeviation="0.375"/>
<feComposite in2="hardAlpha" operator="arithmetic" k2="-1" k3="1"/>
<feColorMatrix type="matrix" values="0 0 0 0 0.745098 0 0 0 0 0.772549 0 0 0 0 0.952941 0 0 0 1 0"/>
<feBlend mode="normal" in2="shape" result="effect1_innerShadow_5358_922"/>
</filter>
<filter id="filter1_dii_5358_922" x="20.6211" y="232.891" width="16.75" height="16.75" filterUnits="userSpaceOnUse" color-interpolation-filters="sRGB">
<feFlood flood-opacity="0" result="BackgroundImageFix"/>
<feColorMatrix in="SourceAlpha" type="matrix" values="0 0 0 0 0 0 0 0 0 0 0 0 0 0 0 0 0 0 127 0" result="hardAlpha"/>
<feOffset dy="0.125"/>
<feGaussianBlur stdDeviation="0.25"/>
<feComposite in2="hardAlpha" operator="out"/>
<feColorMatrix type="matrix" values="0 0 0 0 0.866667 0 0 0 0 0.764706 0 0 0 0 0.847059 0 0 0 1 0"/>
<feBlend mode="normal" in2="BackgroundImageFix" result="effect1_dropShadow_5358_922"/>
<feBlend mode="normal" in="SourceGraphic" in2="effect1_dropShadow_5358_922" result="shape"/>
<feColorMatrix in="SourceAlpha" type="matrix" values="0 0 0 0 0 0 0 0 0 0 0 0 0 0 0 0 0 0 127 0" result="hardAlpha"/>
<feOffset dx="-0.05" dy="0.05"/>
<feGaussianBlur stdDeviation="0.025"/>
<feComposite in2="hardAlpha" operator="arithmetic" k2="-1" k3="1"/>
<feColorMatrix type="matrix" values="0 0 0 0 0.721569 0 0 0 0 0.690196 0 0 0 0 0.701961 0 0 0 1 0"/>
<feBlend mode="normal" in2="shape" result="effect2_innerShadow_5358_922"/>
<feColorMatrix in="SourceAlpha" type="matrix" values="0 0 0 0 0 0 0 0 0 0 0 0 0 0 0 0 0 0 127 0" result="hardAlpha"/>
<feOffset dx="0.05" dy="-0.05"/>
<feGaussianBlur stdDeviation="0.025"/>
<feComposite in2="hardAlpha" operator="arithmetic" k2="-1" k3="1"/>
<feColorMatrix type="matrix" values="0 0 0 0 0.615686 0 0 0 0 0.560784 0 0 0 0 0.65098 0 0 0 1 0"/>
<feBlend mode="normal" in2="effect2_innerShadow_5358_922" result="effect3_innerShadow_5358_922"/>
</filter>
<filter id="filter2_i_5358_922" x="60.6211" y="203.423" width="18.4961" height="16.3148" filterUnits="userSpaceOnUse" color-interpolation-filters="sRGB">
<feFlood flood-opacity="0" result="BackgroundImageFix"/>
<feBlend mode="normal" in="SourceGraphic" in2="BackgroundImageFix" result="shape"/>
<feColorMatrix in="SourceAlpha" type="matrix" values="0 0 0 0 0 0 0 0 0 0 0 0 0 0 0 0 0 0 127 0" result="hardAlpha"/>
<feOffset dy="-0.1"/>
<feGaussianBlur stdDeviation="0.1"/>
<feComposite in2="hardAlpha" operator="arithmetic" k2="-1" k3="1"/>
<feColorMatrix type="matrix" values="0 0 0 0 0.847059 0 0 0 0 0.505882 0 0 0 0 0.360784 0 0 0 1 0"/>
<feBlend mode="normal" in2="shape" result="effect1_innerShadow_5358_922"/>
</filter>
<filter id="filter3_f_5358_922" x="45.3672" y="214.016" width="15.5586" height="14.6797" filterUnits="userSpaceOnUse" color-interpolation-filters="sRGB">
<feFlood flood-opacity="0" result="BackgroundImageFix"/>
<feBlend mode="normal" in="SourceGraphic" in2="BackgroundImageFix" result="shape"/>
<feGaussianBlur stdDeviation="0.25" result="effect1_foregroundBlur_5358_922"/>
</filter>
<linearGradient id="paint0_linear_5358_922" x1="61.333" y1="231.275" x2="72.6418" y2="234.904" gradientUnits="userSpaceOnUse">
<stop stop-color="#EE2452"/>
<stop offset="1" stop-color="#F63E7A"/>
</linearGradient>
<radialGradient id="paint1_radial_5358_922" cx="0" cy="0" r="1" gradientUnits="userSpaceOnUse" gradientTransform="translate(74.4939 233.807) rotate(168.476) scale(18.7539 3.18856)">
<stop offset="0.164" stop-color="#FF8DB0"/>
<stop offset="1" stop-color="#FF8DB0" stop-opacity="0"/>
</radialGradient>
<linearGradient id="paint2_linear_5358_922" x1="69.5994" y1="226.755" x2="67.4366" y2="228.318" gradientUnits="userSpaceOnUse">
<stop offset="0.491" stop-color="#DD467C"/>
<stop offset="1" stop-color="#DD467C" stop-opacity="0"/>
</linearGradient>
<linearGradient id="paint3_linear_5358_922" x1="40.1587" y1="217.795" x2="56.2517" y2="208.621" gradientUnits="userSpaceOnUse">
<stop stop-color="#F83267"/>
<stop offset="1" stop-color="#FF3190"/>
</linearGradient>
<radialGradient id="paint4_radial_5358_922" cx="0" cy="0" r="1" gradientUnits="userSpaceOnUse" gradientTransform="translate(48.0208 217.704) rotate(-85.0844) scale(17.9041 15.4361)">
<stop offset="0.757" stop-color="#E76CBE" stop-opacity="0"/>
<stop offset="0.951" stop-color="#E76CBE"/>
</radialGradient>
<radialGradient id="paint5_radial_5358_922" cx="0" cy="0" r="1" gradientUnits="userSpaceOnUse" gradientTransform="translate(52.0159 208.744) rotate(131.088) scale(12.3528 5.42595)">
<stop stop-color="#FF5898"/>
<stop offset="1" stop-color="#FF5898" stop-opacity="0"/>
</radialGradient>
<linearGradient id="paint6_linear_5358_922" x1="45.9038" y1="249.447" x2="28.5247" y2="225.842" gradientUnits="userSpaceOnUse">
<stop stop-color="#CCBBC0"/>
<stop offset="1" stop-color="#EAD2EC"/>
</linearGradient>
<radialGradient id="paint7_radial_5358_922" cx="0" cy="0" r="1" gradientUnits="userSpaceOnUse" gradientTransform="translate(26.0336 215.924) rotate(45.9866) scale(39.0865 73.4726)">
<stop offset="0.811" stop-color="#E7E5E5" stop-opacity="0"/>
<stop offset="1" stop-color="#E7E5E5"/>
</radialGradient>
<radialGradient id="paint8_radial_5358_922" cx="0" cy="0" r="1" gradientUnits="userSpaceOnUse" gradientTransform="translate(60.2288 221.627) rotate(131.505) scale(22.9777 10.7993)">
<stop offset="0.281" stop-color="#B5A3A5"/>
<stop offset="1" stop-color="#B5A3A5" stop-opacity="0"/>
</radialGradient>
<radialGradient id="paint9_radial_5358_922" cx="0" cy="0" r="1" gradientUnits="userSpaceOnUse" gradientTransform="translate(66.3862 225.428) rotate(114.809) scale(20.37 3.45164)">
<stop offset="0.208" stop-color="#B28F96"/>
<stop offset="1" stop-color="#B28F96" stop-opacity="0"/>
</radialGradient>
<radialGradient id="paint10_radial_5358_922" cx="0" cy="0" r="1" gradientUnits="userSpaceOnUse" gradientTransform="translate(13.781 248.385) rotate(-34.2825) scale(30.8789 9.58755)">
<stop stop-color="#FAECF1"/>
<stop offset="1" stop-color="#FAECF1" stop-opacity="0"/>
</radialGradient>
<linearGradient id="paint11_linear_5358_922" x1="36.5704" y1="243.754" x2="21.1893" y2="240.121" gradientUnits="userSpaceOnUse">
<stop stop-color="#A796A0"/>
<stop offset="1" stop-color="#A5959F"/>
</linearGradient>
<radialGradient id="paint12_radial_5358_922" cx="0" cy="0" r="1" gradientUnits="userSpaceOnUse" gradientTransform="translate(28.9745 241.275) rotate(-81.5664) scale(7.87355)">
<stop offset="0.587" stop-color="#93859B"/>
<stop offset="1" stop-color="#93859B" stop-opacity="0"/>
</radialGradient>
<radialGradient id="paint13_radial_5358_922" cx="0" cy="0" r="1" gradientUnits="userSpaceOnUse" gradientTransform="translate(29.7809 235.883) rotate(98.4336) scale(11.3569 10.4444)">
<stop stop-color="#72CDFF"/>
<stop offset="0.738" stop-color="#66ACFF"/>
<stop offset="1" stop-color="#3B57F4"/>
</radialGradient>
<radialGradient id="paint14_radial_5358_922" cx="0" cy="0" r="1" gradientUnits="userSpaceOnUse" gradientTransform="translate(63.5358 215.157) rotate(-36.5664) scale(13.6089 10.6969)">
<stop stop-color="#D46213"/>
<stop offset="1" stop-color="#FF9542"/>
</radialGradient>
<radialGradient id="paint15_radial_5358_922" cx="0" cy="0" r="1" gradientUnits="userSpaceOnUse" gradientTransform="translate(64.8973 204.169) rotate(57.2476) scale(16.8153 17.7205)">
<stop offset="0.871" stop-color="#FFC484" stop-opacity="0"/>
<stop offset="1" stop-color="#FFC484"/>
</radialGradient>
<linearGradient id="paint16_linear_5358_922" x1="68.2917" y1="221.301" x2="57.3988" y2="206.877" gradientUnits="userSpaceOnUse">
<stop stop-color="#452860"/>
<stop offset="1" stop-color="#51509F"/>
</linearGradient>
<radialGradient id="paint17_radial_5358_922" cx="0" cy="0" r="1" gradientUnits="userSpaceOnUse" gradientTransform="translate(65.7273 222.106) rotate(-93.7379) scale(3.82125 3.37617)">
<stop stop-color="#8E839A"/>
<stop offset="1" stop-color="#8E839A" stop-opacity="0"/>
</radialGradient>
<radialGradient id="paint18_radial_5358_922" cx="0" cy="0" r="1" gradientUnits="userSpaceOnUse" gradientTransform="translate(65.1849 219.739) rotate(-123.631) scale(14.5601 7.6321)">
<stop offset="0.86" stop-color="#6175B9" stop-opacity="0"/>
<stop offset="1" stop-color="#6175B9"/>
</radialGradient>
<linearGradient id="paint19_linear_5358_922" x1="7.5338" y1="257.492" x2="17.3198" y2="250.233" gradientUnits="userSpaceOnUse">
<stop stop-color="#FF3745"/>
<stop offset="1" stop-color="#ED224B"/>
</linearGradient>
<radialGradient id="paint20_radial_5358_922" cx="0" cy="0" r="1" gradientUnits="userSpaceOnUse" gradientTransform="translate(9.05529 254.23) rotate(-36.5664) scale(19.3284 4.63992)">
<stop offset="0.189" stop-color="#FF5971"/>
<stop offset="1" stop-color="#FF5971" stop-opacity="0"/>
</radialGradient>
<linearGradient id="paint21_linear_5358_922" x1="16.6599" y1="249.555" x2="15.6773" y2="250.316" gradientUnits="userSpaceOnUse">
<stop stop-color="#D2575E"/>
<stop offset="1" stop-color="#F93251" stop-opacity="0"/>
</linearGradient>
<linearGradient id="paint22_linear_5358_922" x1="44.9069" y1="229.413" x2="62.1735" y2="216.605" gradientUnits="userSpaceOnUse">
<stop stop-color="#FF2644"/>
<stop offset="1" stop-color="#FF2982"/>
</linearGradient>
<radialGradient id="paint23_radial_5358_922" cx="0" cy="0" r="1" gradientUnits="userSpaceOnUse" gradientTransform="translate(66.4065 227.016) rotate(167.569) scale(17.4793 4.57592)">
<stop stop-color="#FF95AF"/>
<stop offset="1" stop-color="#FF95AF" stop-opacity="0"/>
</radialGradient>
<radialGradient id="paint24_radial_5358_922" cx="0" cy="0" r="1" gradientUnits="userSpaceOnUse" gradientTransform="translate(68.6539 225.25) rotate(-126.862) scale(10.8052 3.19175)">
<stop offset="0.382" stop-color="#E14678"/>
<stop offset="1" stop-color="#E14678" stop-opacity="0"/>
</radialGradient>
<radialGradient id="paint25_radial_5358_922" cx="0" cy="0" r="1" gradientUnits="userSpaceOnUse" gradientTransform="translate(53.92 225.833) rotate(-86.8922) scale(17.3601 18.4997)">
<stop offset="0.832" stop-color="#E67BC7" stop-opacity="0"/>
<stop offset="1" stop-color="#E67BC7"/>
</radialGradient>
<linearGradient id="paint26_linear_5358_922" x1="47.9871" y1="227.398" x2="59.033" y2="218.817" gradientUnits="userSpaceOnUse">
<stop stop-color="#FF5970"/>
<stop offset="1" stop-color="#FF5794"/>
</linearGradient>
<clipPath id="clip0_5358_922">
<rect width="75" height="75" fill="white" transform="translate(74.1875 274.188) rotate(-171.566)"/>
</clipPath>
</defs>
</svg>
