<svg width="33" height="34" viewBox="0 0 33 34" fill="none" xmlns="http://www.w3.org/2000/svg">
<path d="M23.7212 17.6761C23.3307 20.9279 21.2009 22.2273 20.281 23.1706C19.3597 24.1166 19.5247 24.3049 19.5866 25.6923C19.5969 25.864 19.572 26.0359 19.5133 26.1976C19.4547 26.3592 19.3636 26.5071 19.2456 26.6322C19.1276 26.7573 18.9852 26.8569 18.8272 26.9249C18.6693 26.9928 18.4991 27.0278 18.3271 27.0274H14.6724C14.5005 27.0271 14.3305 26.9918 14.1728 26.9237C14.015 26.8555 13.8728 26.7559 13.7548 26.631C13.6369 26.5061 13.5456 26.3584 13.4865 26.197C13.4275 26.0356 13.402 25.8639 13.4115 25.6923C13.4115 24.3311 13.538 24.0148 12.7185 23.1706C11.6735 22.1256 9.21499 20.6502 9.21499 16.5926C9.20871 15.5847 9.41129 14.5864 9.80997 13.6607C10.2086 12.735 10.7948 11.902 11.5314 11.214C12.268 10.5261 13.1391 9.99824 14.0899 9.6637C15.0406 9.32916 16.0504 9.1952 17.0555 9.27027C18.0606 9.34534 19.0392 9.62782 19.9297 10.0999C20.8202 10.572 21.6033 11.2234 22.2296 12.0131C22.8558 12.8028 23.3117 13.7137 23.5684 14.6884C23.8251 15.663 23.8772 16.6803 23.7212 17.6761Z" stroke="black" stroke-width="1.5" stroke-linecap="round" stroke-linejoin="round"/>
<path d="M14.3828 26.9507V29.0297C14.3828 29.5975 14.6991 30.0637 15.0882 30.0637H17.9111C18.3029 30.0637 18.6178 29.5962 18.6178 29.0297V26.9507M15.4278 12.4582C14.6159 12.4585 13.8374 12.7813 13.2635 13.3555C12.6895 13.9297 12.3671 14.7084 12.3671 15.5203M26.5818 16.8692H29.1036M24.0436 8.60266L25.8324 6.81378M25.4186 23.8762L27.2074 25.6637M16.5003 3.76953V5.80866M7.20531 6.81241L8.98181 8.60266M5.83031 25.6637L7.60681 23.8762M6.41881 16.8692H3.89844" stroke="black" stroke-width="1.5" stroke-linecap="round" stroke-linejoin="round"/>
</svg>
