<svg xmlns="http://www.w3.org/2000/svg" width="50" height="51" viewBox="0 0 50 51" fill="none">
  <g clip-path="url(#clip0_3179_7936)">
    <path d="M24.6589 37.7085L12.1589 42.4937C11.5827 42.7085 10.9772 42.269 11.0065 41.6538L11.6901 28.2847C11.6999 28.0796 11.6315 27.8745 11.5046 27.7085L3.0866 17.2983C2.69598 16.8198 2.93035 16.1069 3.52606 15.9409L16.4557 12.4644C16.6608 12.4058 16.8366 12.2788 16.944 12.103L24.2487 0.89209C24.5807 0.374512 25.3425 0.374512 25.6745 0.89209L32.9792 12.1128C33.0964 12.2886 33.2722 12.4155 33.4675 12.4741L46.3972 15.9507C46.9929 16.1069 47.2272 16.8296 46.8366 17.3081L38.4284 27.7183C38.3014 27.8843 38.2331 28.0894 38.2429 28.2944L38.9264 41.6636C38.9557 42.2788 38.3503 42.7183 37.7741 42.5034L25.2741 37.7183C25.069 37.6401 24.8542 37.6401 24.6589 37.7085Z" fill="#FFB636"/>
    <path d="M44.5413 5.54911L40.5374 1.5452C40.4202 1.42801 40.264 1.37919 40.1077 1.39872C39.9515 1.41825 39.805 1.5159 39.7268 1.65262L35.596 9.78739C35.4788 9.99247 35.5179 10.2366 35.6839 10.4026C35.7815 10.5003 35.9182 10.5491 36.0452 10.5491C36.1331 10.5491 36.221 10.5296 36.2991 10.4807L44.4241 6.35965C44.5608 6.28153 44.6585 6.14481 44.678 5.9788C44.7073 5.82255 44.6487 5.6663 44.5413 5.54911ZM14.5608 9.79715L10.43 1.66239C10.3518 1.52567 10.2151 1.42801 10.0491 1.40848C9.89286 1.38895 9.72684 1.43778 9.61942 1.55497L5.61551 5.55887C5.49833 5.67606 5.4495 5.83231 5.46903 5.98856C5.48856 6.14481 5.58622 6.2913 5.72294 6.36942L13.8577 10.5003C13.9358 10.5491 14.0237 10.5686 14.1116 10.5686C14.2483 10.5686 14.3753 10.5198 14.4729 10.4222C14.639 10.2464 14.6682 9.99247 14.5608 9.79715ZM28.3011 49.8362L25.469 41.1643C25.4495 41.0765 25.4007 40.9983 25.3421 40.9397C25.2444 40.8421 25.1175 40.7933 24.9807 40.7933C24.7464 40.7933 24.5511 40.9495 24.4827 41.1741L21.6507 49.846C21.6116 50.0022 21.6409 50.1683 21.7386 50.2952C21.8362 50.4222 21.9827 50.5003 22.1487 50.5003H27.803C27.9593 50.5003 28.1155 50.4222 28.2132 50.2952C28.3206 50.1585 28.3499 49.9925 28.3011 49.8362Z" fill="#FFD469"/>
  </g>
  <defs>
    <clipPath id="clip0_3179_7936">
      <rect width="50" height="50" fill="white" transform="translate(0 0.5)"/>
    </clipPath>
  </defs>
</svg>