<svg xmlns="http://www.w3.org/2000/svg" width="25" height="25" viewBox="0 0 25 25" fill="none">
  <path d="M15.158 9.53223C16.5252 9.25879 17.8533 9.39551 18.5174 9.49316C19.2595 9.59082 20.2947 9.74707 21.0955 10.1182C22.0135 10.5283 22.2478 11.2314 22.2674 12.0713C22.2869 12.8525 22.0525 13.3213 21.7791 13.5752C22.5994 14.0244 22.7947 14.5518 22.7556 15.4307C22.7166 16.2119 22.365 16.8174 21.6619 17.1689C22.2283 17.7744 22.3455 18.2432 22.2478 19.1611C22.1697 20.0205 21.8377 20.5283 20.49 20.9189C20.7439 21.1924 20.822 21.6611 20.8025 22.0908C20.7635 22.5986 20.6072 23.0869 19.9041 23.4385C19.7088 23.5361 18.5564 24.1025 16.1541 23.3408C14.1228 23.6924 11.2908 23.5166 9.0447 22.4424C6.9158 22.4229 4.39627 22.2471 4.20095 22.2471C3.98611 22.2471 3.57595 22.1494 3.38064 21.6025C3.18533 21.0557 2.57986 16.9346 3.14627 14.4541C3.22439 14.1025 3.51736 13.9072 3.77126 13.8877C4.02517 13.8682 5.45095 13.7119 5.78298 13.6729C7.5408 13.458 7.11111 11.9346 9.14236 9.5127C10.0994 8.36035 12.0525 7.55957 12.1697 5.00098C12.2088 4.1416 12.2674 2.73535 12.2674 2.54004C12.2674 1.30957 14.6502 1.0752 15.5095 2.77441C17.0525 5.80176 15.783 7.28613 15.158 9.53223Z" fill="#FFCA28"/>
  <mask id="mask0_3188_383" style="mask-type:luminance" maskUnits="userSpaceOnUse" x="2" y="1" width="21" height="23">
    <path d="M15.158 9.53223C16.5252 9.25879 17.8533 9.39551 18.5174 9.49316C19.2595 9.59082 20.2947 9.74707 21.0955 10.1182C22.0135 10.5283 22.2478 11.2314 22.2674 12.0713C22.2869 12.8525 22.0525 13.3213 21.7791 13.5752C22.5994 14.0244 22.7947 14.5518 22.7556 15.4307C22.7166 16.2119 22.365 16.8174 21.6619 17.1689C22.2283 17.7744 22.3455 18.2432 22.2478 19.1611C22.1697 20.0205 21.8377 20.5283 20.49 20.9189C20.7439 21.1924 20.822 21.6611 20.8025 22.0908C20.7635 22.5986 20.6072 23.0869 19.9041 23.4385C19.7088 23.5361 18.5564 24.1025 16.1541 23.3408C14.1228 23.6924 11.2908 23.5166 9.0447 22.4424C6.9158 22.4229 4.39627 22.2471 4.20095 22.2471C3.98611 22.2471 3.57595 22.1494 3.38064 21.6025C3.18533 21.0557 2.57986 16.9346 3.14627 14.4541C3.22439 14.1025 3.51736 13.9072 3.77126 13.8877C4.02517 13.8682 5.45095 13.7119 5.78298 13.6729C7.5408 13.458 7.11111 11.9346 9.14236 9.5127C10.0994 8.36035 12.0525 7.55957 12.1697 5.00098C12.2088 4.1416 12.2674 2.73535 12.2674 2.54004C12.2674 1.30957 14.6502 1.0752 15.5095 2.77441C17.0525 5.80176 15.783 7.28613 15.158 9.53223Z" fill="white"/>
  </mask>
  <g mask="url(#mask0_3188_383)">
    <path d="M3.125 14.1016C3.14453 14.3945 3.125 14.8242 3.67187 14.8242C4.21875 14.8242 5.52734 14.6875 5.80078 14.6484C6.32813 14.5898 7.16797 14.1602 7.48047 13.4766C7.75391 12.9102 8.39844 11.4258 8.39844 11.4258C8.39844 11.4258 9.76562 7.51953 10.2734 7.46094C11.0742 7.36328 12.5977 7.1875 12.5977 4.92188C12.5977 4.21875 12.6758 3.16406 12.6758 2.96875C12.7344 1.46484 14.4141 2.03125 15.0781 2.75391L15.7813 2.16797L14.5312 1.05469C14.5312 1.05469 11.9141 1.19141 11.9336 1.21094C11.9922 1.23047 3.125 14.1016 3.125 14.1016ZM3.24219 21.6406L8.61328 21.8359V22.6563L3.39844 22.3828L3.24219 21.6406ZM21.7578 9.49219L23.125 11.9531L22.7734 20.0977L20.1562 24.0625L16.25 23.9648C16.25 23.9648 15.1563 21.7578 15 21.3477C14.8438 20.957 14.4141 20.1758 13.5742 18.9648C12.7539 17.7539 13.3203 16.6992 13.8867 16.2891C14.2188 16.0547 14.4922 15.2734 14.5312 14.8047C14.5703 14.3359 14.7266 10.7617 14.7656 9.70703C14.8047 8.65234 15.7617 8.39844 16.1719 8.39844L21.7578 9.49219ZM17.8906 10.8594C17.1875 10.9375 16.8359 11.7383 16.8359 12.5781C16.8555 13.9844 17.4023 13.9648 17.9883 14.082C18.1445 14.1211 18.2227 14.375 17.9883 14.4141C16.9727 14.5117 16.7773 15.3906 16.7773 16.0742C16.7773 17.3633 17.7148 17.4805 17.8711 17.4805C18.125 17.5 18.2031 17.8125 17.8711 17.832C17.2266 17.8711 16.8359 18.5156 16.8359 19.2773C16.8359 19.8633 17.0117 20.4688 18.0273 20.7617C18.1445 20.8008 18.3203 21.0742 17.9883 21.1133C17.1094 21.25 17.0898 21.6797 17.0703 22.2461C17.0703 22.8906 17.3828 23.0859 17.7734 23.2031C18.1055 23.2813 18.7695 23.3008 19.1406 23.2422C20.0391 23.0859 20.7812 22.0898 20 21.0156H18.75C18.6328 21.0156 18.6328 20.8594 18.7891 20.8594C20.918 20.7422 21.543 19.9805 21.6602 19.1211C21.7383 18.4961 21.5625 17.8516 21.0352 17.3828C20.957 17.3047 20.8398 17.3438 20.7031 17.3438C23.0469 16.0742 22.1875 14.1016 21.0547 13.9062C20.8398 13.8672 20.6445 13.8477 20.8398 13.7695C21.9922 13.3594 22.2852 10.1562 19.668 10.2539C19.707 10.2539 18.457 10.8008 17.8906 10.8594Z" fill="#FAA700"/>
  </g>
  <mask id="mask1_3188_383" style="mask-type:luminance" maskUnits="userSpaceOnUse" x="2" y="1" width="21" height="23">
    <path d="M15.158 9.53223C16.5252 9.25879 17.8533 9.39551 18.5174 9.49316C19.2595 9.59082 20.2947 9.74707 21.0955 10.1182C22.0135 10.5283 22.2478 11.2314 22.2674 12.0713C22.2869 12.8525 22.0525 13.3213 21.7791 13.5752C22.5994 14.0244 22.7947 14.5518 22.7556 15.4307C22.7166 16.2119 22.365 16.8174 21.6619 17.1689C22.2283 17.7744 22.3455 18.2432 22.2478 19.1611C22.1697 20.0205 21.8377 20.5283 20.49 20.9189C20.7439 21.1924 20.822 21.6611 20.8025 22.0908C20.7635 22.5986 20.6072 23.0869 19.9041 23.4385C19.7088 23.5361 18.5564 24.1025 16.1541 23.3408C14.1228 23.6924 11.2908 23.5166 9.0447 22.4424C6.9158 22.4229 4.39627 22.2471 4.20095 22.2471C3.98611 22.2471 3.57595 22.1494 3.38064 21.6025C3.18533 21.0557 2.57986 16.9346 3.14627 14.4541C3.22439 14.1025 3.51736 13.9072 3.77126 13.8877C4.02517 13.8682 5.45095 13.7119 5.78298 13.6729C7.5408 13.458 7.11111 11.9346 9.14236 9.5127C10.0994 8.36035 12.0525 7.55957 12.1697 5.00098C12.2088 4.1416 12.2674 2.73535 12.2674 2.54004C12.2674 1.30957 14.6502 1.0752 15.5095 2.77441C17.0525 5.80176 15.783 7.28613 15.158 9.53223Z" fill="white"/>
  </mask>
  <g mask="url(#mask1_3188_383)">
    <path d="M6.11328 13.3418C6.26953 13.8691 6.89453 13.8301 7.24609 13.459C8.10547 12.502 8.75 10.666 9.57031 9.82617C10.918 8.43945 12.4219 7.36524 12.4219 5.91992C12.4219 5.45117 12.6172 4.20117 12.0117 3.94727C11.6992 3.81055 11.4648 4.04492 11.4648 4.2207C11.4648 4.41602 11.3281 6.27148 11.3281 6.27148L6.11328 13.3418Z" fill="#B55E19"/>
    <path d="M14.1992 1.38867C14.1211 1.60351 14.1602 1.85742 14.4727 2.15039C17.4219 4.88476 14.3359 8.30273 14.375 10.0801C14.3945 10.5684 14.375 13.7129 14.3359 14.0449C14.0234 16.1738 12.7734 16.9355 12.0703 17.3457C11.9727 17.4043 11.9922 17.6191 12.1484 17.5801C12.2852 17.541 13.7109 17.2676 14.4727 15.8223C14.5312 16.252 14.9805 17.0332 15.3516 17.1895C14.9609 17.3652 13.8867 18.9668 15.625 20.4121C14.9609 20.666 14.4922 21.9551 15.4492 22.7949C14.7656 23.0098 11.1523 23.0684 9.0625 21.7012C8.86719 21.5645 8.53516 21.6035 8.37891 21.7598C8.20313 21.916 8.10547 21.916 8.00781 21.8965C7.91016 21.877 5.09766 22.0137 4.90234 22.0137C4.70703 22.0137 4.27734 22.0527 4.27734 22.3262C4.27734 22.5996 9.08203 22.6387 9.08203 22.6387L11.7383 23.8105L16.2891 23.6348C16.2891 23.6348 19.0039 23.8887 18.6523 23.8105C18.3008 23.7324 16.582 23.3418 15.8203 22.541C14.9414 21.584 15.7031 20.959 15.918 20.9004C16.0547 20.8613 16.2109 20.8223 16.4258 20.9004C16.6602 20.9785 19.1602 21.584 20.3711 21.0176C20.5273 20.9395 20.4688 20.8418 20.332 20.8418C18.3398 20.9394 16.6406 20.6074 15.8398 19.9238C14.6875 18.9277 15.1953 17.8535 15.5859 17.6191C15.7227 17.541 15.8789 17.5605 15.957 17.5996C17.5195 18.2637 20.6641 17.8926 21.5625 17.3262C21.6602 17.2676 21.6211 17.1309 21.4844 17.1699C21.1914 17.248 17.1484 17.9707 15.7422 16.8184C14.7656 16.0176 14.5898 15.1387 15.2344 14.4551C15.4297 14.2402 15.7812 14.2988 15.8594 14.3184C18.4375 14.8457 21.1719 14.3184 21.6602 13.8105C21.7773 13.6934 21.7188 13.5371 21.5234 13.5957C20.8398 13.8105 18.1055 14.1816 16.875 14.0254C16.5625 13.9863 16.25 13.9473 15.8203 13.6543C15.5859 13.498 15.3125 13.3027 15.1172 13.1074C14.9219 12.9121 14.7461 12.541 14.8242 11.8574C14.8633 11.4668 15.0781 11.0762 15.7617 10.9395C16.1523 10.8613 16.7773 10.998 16.9531 11.0371C17.1289 11.0762 17.4609 11.0762 17.6758 11.0176C18.0273 10.9199 19.1992 10.6074 19.9414 10.5488C20.1758 10.5293 20.2148 10.2559 19.9219 10.2363C19.6484 10.2168 18.5937 10.1973 17.793 10.3926C17.6953 10.4121 17.6367 10.3535 17.6953 10.2949C17.7539 10.2168 17.9102 10.0996 17.9492 10.0605C18.0078 10.0215 18.0273 9.82617 17.7344 9.90429C17.5586 9.94336 17.2461 10.1582 17.0898 10.373C17.0117 10.4902 16.875 10.5098 16.7969 10.5098C15.8594 10.4512 15.2734 10.5488 14.9609 10.8809C14.9414 10.3926 15.0195 9.86523 15.1172 9.59179C15.1758 9.41601 16.8555 7.83398 16.7187 5.02148C16.582 2.13086 14.5312 0.548826 14.1992 1.38867Z" fill="#B55E19"/>
  </g>
</svg>